<?xml version="1.0" encoding="UTF-8"?>
<svg fill="none" viewBox="0 0 186 102" xmlns="http://www.w3.org/2000/svg">
<rect width="186" height="102" fill="#fff"/>
<rect x="88.5" y="43.5" width="17" height="17" stroke="#000"/>
<path d="m98.182 47.773v8.7273h-1.0568v-7.6193h-0.0511l-2.1307 1.4148v-1.0739l2.1818-1.4489h1.0568z" fill="#000"/>
<rect x="105.5" y="43.5" width="17" height="17" stroke="#000"/>
<path d="m114 56.619c-0.642 0-1.189-0.1747-1.641-0.5241-0.451-0.3523-0.796-0.8622-1.035-1.5299-0.239-0.6704-0.358-1.4801-0.358-2.4289 0-0.9432 0.119-1.7486 0.358-2.4162 0.241-0.6705 0.588-1.1818 1.04-1.5341 0.454-0.3551 1-0.5327 1.636-0.5327s1.18 0.1776 1.632 0.5327c0.455 0.3523 0.801 0.8636 1.04 1.5341 0.241 0.6676 0.362 1.473 0.362 2.4162 0 0.9488-0.119 1.7585-0.358 2.4289-0.238 0.6677-0.584 1.1776-1.035 1.5299-0.452 0.3494-0.999 0.5241-1.641 0.5241zm0-0.9375c0.636 0 1.131-0.3068 1.483-0.9204 0.352-0.6137 0.528-1.4887 0.528-2.625 0-0.7557-0.081-1.3992-0.243-1.9304-0.159-0.5313-0.389-0.9361-0.69-1.2145-0.298-0.2784-0.658-0.4176-1.078-0.4176-0.631 0-1.124 0.311-1.479 0.9332-0.355 0.6193-0.532 1.4957-0.532 2.6293 0 0.7556 0.079 1.3977 0.238 1.9261s0.388 0.9304 0.686 1.206c0.301 0.2755 0.664 0.4133 1.087 0.4133z" fill="#000"/>
<rect x="122.5" y="43.5" width="17" height="17" stroke="#000"/>
<path d="m132.18 47.773v8.7273h-1.057v-7.6193h-0.051l-2.131 1.4148v-1.0739l2.182-1.4489h1.057z" fill="#000"/>
<rect x="139.5" y="43.5" width="17" height="17" stroke="#000"/>
<path d="m149.18 47.773v8.7273h-1.057v-7.6193h-0.051l-2.131 1.4148v-1.0739l2.182-1.4489h1.057z" fill="#000"/>
<path d="m120.82 26v-4.3636h0.529v3.8948h2.028v0.4688h-2.557zm4.679 0.0682c-0.315 0-0.587-0.0696-0.816-0.2088-0.227-0.1406-0.402-0.3367-0.526-0.5881-0.122-0.2528-0.183-0.5469-0.183-0.8821s0.061-0.6307 0.183-0.8864c0.124-0.2571 0.296-0.4573 0.516-0.6008 0.221-0.1449 0.48-0.2173 0.775-0.2173 0.171 0 0.339 0.0284 0.505 0.0852 0.167 0.0568 0.318 0.1491 0.454 0.277 0.137 0.1264 0.245 0.294 0.326 0.5028s0.122 0.4659 0.122 0.7713v0.2131h-2.523v-0.4347h2.011c0-0.1846-0.037-0.3494-0.111-0.4943-0.072-0.1449-0.176-0.2592-0.311-0.343-0.133-0.0838-0.291-0.1257-0.473-0.1257-0.2 0-0.373 0.0497-0.52 0.1491-0.144 0.098-0.256 0.2259-0.334 0.3835-0.078 0.1577-0.117 0.3267-0.117 0.5071v0.2898c0 0.2472 0.042 0.4567 0.128 0.6286 0.086 0.1704 0.206 0.3004 0.36 0.3899 0.153 0.088 0.331 0.1321 0.534 0.1321 0.133 0 0.252-0.0185 0.358-0.0554 0.108-0.0384 0.201-0.0952 0.28-0.1705 0.078-0.0767 0.138-0.1719 0.181-0.2855l0.485 0.1364c-0.051 0.1647-0.137 0.3096-0.257 0.4346-0.121 0.1236-0.27 0.2202-0.448 0.2898-0.177 0.0682-0.377 0.1023-0.599 0.1023zm3.084 0.0085c-0.208 0-0.396-0.0391-0.565-0.1172-0.169-0.0795-0.303-0.1939-0.403-0.343-0.099-0.1506-0.149-0.3324-0.149-0.5455 0-0.1875 0.037-0.3395 0.111-0.4559 0.074-0.1179 0.172-0.2103 0.296-0.277 0.124-0.0668 0.26-0.1165 0.409-0.1492 0.151-0.0341 0.302-0.0611 0.454-0.0809 0.199-0.0256 0.36-0.0448 0.484-0.0576 0.125-0.0142 0.216-0.0376 0.272-0.0703 0.059-0.0327 0.088-0.0895 0.088-0.1704v-0.0171c0-0.2102-0.058-0.3736-0.173-0.49-0.113-0.1165-0.286-0.1748-0.518-0.1748-0.24 0-0.428 0.0526-0.564 0.1577-0.137 0.1051-0.232 0.2173-0.288 0.3367l-0.477-0.1705c0.085-0.1989 0.199-0.3537 0.341-0.4645 0.143-0.1122 0.299-0.1903 0.469-0.2344 0.17-0.0454 0.338-0.0681 0.502-0.0681 0.105 0 0.226 0.0127 0.363 0.0383 0.137 0.0242 0.27 0.0746 0.398 0.1513 0.129 0.0767 0.237 0.1925 0.322 0.3473s0.128 0.3622 0.128 0.6222v2.1562h-0.503v-0.4432h-0.026c-0.034 0.071-0.091 0.147-0.17 0.228-0.08 0.081-0.186 0.1499-0.318 0.2067s-0.293 0.0852-0.483 0.0852zm0.076-0.4517c0.199 0 0.367-0.0391 0.503-0.1172 0.138-0.0781 0.242-0.179 0.311-0.3025 0.071-0.1236 0.107-0.2536 0.107-0.39v-0.4602c-0.022 0.0256-0.068 0.049-0.141 0.0703-0.071 0.0199-0.153 0.0377-0.247 0.0533-0.092 0.0142-0.183 0.027-0.271 0.0383-0.086 0.01-0.157 0.0185-0.211 0.0256-0.13 0.0171-0.252 0.0448-0.366 0.0831-0.112 0.0369-0.203 0.093-0.273 0.1683-0.068 0.0739-0.102 0.1747-0.102 0.3026 0 0.1747 0.065 0.3068 0.194 0.3963 0.131 0.0881 0.296 0.1321 0.496 0.1321zm4.66-2.1648-0.452 0.1279c-0.029-0.0753-0.07-0.1485-0.126-0.2195-0.054-0.0724-0.128-0.1321-0.221-0.179-0.094-0.0468-0.214-0.0703-0.361-0.0703-0.2 0-0.367 0.0462-0.5 0.1385-0.132 0.0909-0.198 0.2067-0.198 0.3473 0 0.125 0.045 0.2237 0.136 0.2962 0.091 0.0724 0.233 0.1328 0.426 0.1811l0.486 0.1193c0.292 0.071 0.511 0.1797 0.654 0.326 0.143 0.1449 0.215 0.3317 0.215 0.5604 0 0.1875-0.054 0.3551-0.162 0.5028-0.106 0.1477-0.255 0.2642-0.447 0.3494-0.192 0.0853-0.415 0.1279-0.669 0.1279-0.334 0-0.61-0.0725-0.829-0.2173-0.219-0.1449-0.357-0.3566-0.416-0.635l0.478-0.1193c0.045 0.1761 0.131 0.3082 0.258 0.3963s0.294 0.1321 0.5 0.1321c0.235 0 0.421-0.0497 0.559-0.1491 0.139-0.1009 0.208-0.2216 0.208-0.3623 0-0.1136-0.039-0.2088-0.119-0.2855-0.08-0.0781-0.202-0.1363-0.366-0.1747l-0.546-0.1278c-0.3-0.0711-0.52-0.1811-0.66-0.3303-0.14-0.1506-0.209-0.3388-0.209-0.5646 0-0.1847 0.052-0.348 0.155-0.4901 0.105-0.142 0.248-0.2535 0.429-0.3345s0.387-0.1214 0.617-0.1214c0.324 0 0.579 0.071 0.763 0.213 0.186 0.1421 0.318 0.3296 0.397 0.5625zm2.239-0.7329v0.4261h-1.696v-0.4261h1.696zm-1.201-0.7841h0.503v3.1193c0 0.142 0.02 0.2486 0.061 0.3196 0.043 0.0696 0.097 0.1165 0.162 0.1406 0.067 0.0228 0.137 0.0341 0.211 0.0341 0.056 0 0.101-0.0028 0.137-0.0085 0.035-0.0071 0.064-0.0128 0.085-0.0171l0.102 0.4518c-0.034 0.0127-0.082 0.0255-0.143 0.0383-0.061 0.0142-0.138 0.0213-0.232 0.0213-0.142 0-0.281-0.0305-0.418-0.0916-0.134-0.0611-0.247-0.1541-0.336-0.2791-0.088-0.125-0.132-0.2827-0.132-0.473v-3.2557zm5.963 1.517-0.451 0.1279c-0.029-0.0753-0.071-0.1485-0.126-0.2195-0.054-0.0724-0.128-0.1321-0.222-0.179-0.093-0.0468-0.213-0.0703-0.36-0.0703-0.2 0-0.367 0.0462-0.5 0.1385-0.132 0.0909-0.198 0.2067-0.198 0.3473 0 0.125 0.045 0.2237 0.136 0.2962 0.091 0.0724 0.233 0.1328 0.426 0.1811l0.486 0.1193c0.292 0.071 0.51 0.1797 0.654 0.326 0.143 0.1449 0.215 0.3317 0.215 0.5604 0 0.1875-0.054 0.3551-0.162 0.5028-0.106 0.1477-0.255 0.2642-0.447 0.3494-0.192 0.0853-0.415 0.1279-0.669 0.1279-0.334 0-0.61-0.0725-0.829-0.2173-0.219-0.1449-0.357-0.3566-0.416-0.635l0.478-0.1193c0.045 0.1761 0.131 0.3082 0.258 0.3963s0.294 0.1321 0.5 0.1321c0.235 0 0.421-0.0497 0.558-0.1491 0.14-0.1009 0.209-0.2216 0.209-0.3623 0-0.1136-0.04-0.2088-0.119-0.2855-0.08-0.0781-0.202-0.1363-0.367-0.1747l-0.545-0.1278c-0.3-0.0711-0.52-0.1811-0.66-0.3303-0.14-0.1506-0.209-0.3388-0.209-0.5646 0-0.1847 0.052-0.348 0.155-0.4901 0.105-0.142 0.248-0.2535 0.429-0.3345s0.387-0.1214 0.617-0.1214c0.324 0 0.579 0.071 0.763 0.213 0.186 0.1421 0.318 0.3296 0.396 0.5625zm0.817 2.5398v-3.2727h0.503v3.2727h-0.503zm0.256-3.8182c-0.098 0-0.183-0.0334-0.254-0.1001-0.069-0.0668-0.104-0.147-0.104-0.2408 0-0.0937 0.035-0.174 0.104-0.2408 0.071-0.0667 0.156-0.1001 0.254-0.1001s0.182 0.0334 0.251 0.1001c0.071 0.0668 0.107 0.1471 0.107 0.2408 0 0.0938-0.036 0.174-0.107 0.2408-0.069 0.0667-0.153 0.1001-0.251 0.1001zm2.489 5.1137c-0.243 0-0.452-0.0313-0.626-0.0938-0.175-0.0611-0.321-0.142-0.437-0.2429-0.115-0.0994-0.207-0.206-0.275-0.3196l0.4-0.2812c0.046 0.0596 0.103 0.1278 0.173 0.2045 0.07 0.0781 0.165 0.1456 0.286 0.2024 0.122 0.0583 0.281 0.0874 0.479 0.0874 0.264 0 0.482-0.0639 0.654-0.1918 0.172-0.1278 0.258-0.3281 0.258-0.6008v-0.6648h-0.043c-0.037 0.0596-0.089 0.1335-0.157 0.2216-0.067 0.0866-0.164 0.164-0.29 0.2322-0.125 0.0668-0.294 0.1002-0.507 0.1002-0.265 0-0.502-0.0625-0.712-0.1875-0.209-0.125-0.374-0.3069-0.496-0.5455-0.121-0.2386-0.182-0.5284-0.182-0.8693 0-0.3352 0.059-0.6271 0.177-0.8757 0.118-0.25 0.282-0.4432 0.493-0.5796 0.21-0.1377 0.453-0.2066 0.728-0.2066 0.213 0 0.382 0.0355 0.507 0.1065 0.127 0.0696 0.223 0.1491 0.29 0.2386 0.068 0.0881 0.121 0.1605 0.158 0.2174h0.051v-0.5199h0.486v3.3665c0 0.2812-0.064 0.5099-0.192 0.686-0.126 0.1776-0.297 0.3076-0.511 0.3899-0.213 0.0839-0.451 0.1258-0.712 0.1258zm-0.017-1.7983c0.202 0 0.372-0.0462 0.511-0.1385 0.139-0.0924 0.245-0.2252 0.318-0.3985 0.072-0.1733 0.108-0.3807 0.108-0.6221 0-0.2358-0.035-0.4439-0.106-0.6243s-0.176-0.3218-0.315-0.424c-0.14-0.1023-0.312-0.1534-0.516-0.1534-0.213 0-0.391 0.0539-0.533 0.1619-0.14 0.1079-0.246 0.2528-0.317 0.4347-0.07 0.1818-0.105 0.3835-0.105 0.6051 0 0.2272 0.036 0.4282 0.107 0.603 0.072 0.1732 0.179 0.3096 0.319 0.409 0.143 0.0981 0.319 0.1471 0.529 0.1471zm2.855-1.466v1.9688h-0.503v-3.2727h0.486v0.5113h0.043c0.076-0.1662 0.193-0.2997 0.349-0.4005 0.156-0.1023 0.358-0.1534 0.605-0.1534 0.222 0 0.416 0.0454 0.582 0.1363 0.166 0.0895 0.295 0.2259 0.388 0.4091 0.092 0.1818 0.138 0.4119 0.138 0.6904v2.0795h-0.503v-2.0455c0-0.2571-0.067-0.4573-0.2-0.6008-0.134-0.1449-0.317-0.2173-0.55-0.2173-0.16 0-0.304 0.0348-0.43 0.1044-0.125 0.0696-0.224 0.1711-0.296 0.3047-0.073 0.1335-0.109 0.2954-0.109 0.4857zm3.007 1.9688v-3.2727h0.503v3.2727h-0.503zm0.256-3.8182c-0.098 0-0.183-0.0334-0.254-0.1001-0.07-0.0668-0.104-0.147-0.104-0.2408 0-0.0937 0.034-0.174 0.104-0.2408 0.071-0.0667 0.156-0.1001 0.254-0.1001s0.181 0.0334 0.251 0.1001c0.071 0.0668 0.107 0.1471 0.107 0.2408 0 0.0938-0.036 0.174-0.107 0.2408-0.07 0.0667-0.153 0.1001-0.251 0.1001zm2.625 0.5455v0.4261h-1.764v-0.4261h1.764zm-1.236 3.2727v-3.7244c0-0.1875 0.044-0.3438 0.132-0.4688 0.089-0.125 0.203-0.2187 0.343-0.2812 0.141-0.0625 0.29-0.0938 0.446-0.0938 0.123 0 0.224 0.01 0.302 0.0298 0.078 0.0199 0.137 0.0384 0.175 0.0554l-0.145 0.4347c-0.025-0.0085-0.061-0.0192-0.106-0.032-0.044-0.0127-0.103-0.0191-0.175-0.0191-0.166 0-0.286 0.0419-0.36 0.1257-0.073 0.0838-0.109 0.2067-0.109 0.3686v3.6051h-0.503zm1.941 0v-3.2727h0.503v3.2727h-0.503zm0.256-3.8182c-0.098 0-0.183-0.0334-0.254-0.1001-0.07-0.0668-0.104-0.147-0.104-0.2408 0-0.0937 0.034-0.174 0.104-0.2408 0.071-0.0667 0.156-0.1001 0.254-0.1001s0.181 0.0334 0.251 0.1001c0.071 0.0668 0.106 0.1471 0.106 0.2408 0 0.0938-0.035 0.174-0.106 0.2408-0.07 0.0667-0.153 0.1001-0.251 0.1001zm2.497 3.8864c-0.307 0-0.571-0.0725-0.792-0.2173-0.222-0.1449-0.392-0.3445-0.512-0.5988-0.119-0.2542-0.179-0.5447-0.179-0.8714 0-0.3324 0.061-0.6257 0.184-0.88 0.123-0.2557 0.295-0.4552 0.515-0.5987 0.222-0.1449 0.48-0.2173 0.776-0.2173 0.23 0 0.437 0.0426 0.622 0.1278s0.336 0.2045 0.454 0.358c0.118 0.1534 0.191 0.3323 0.219 0.5369h-0.503c-0.038-0.1492-0.123-0.2813-0.255-0.3963-0.131-0.1165-0.307-0.1747-0.529-0.1747-0.196 0-0.368 0.0511-0.515 0.1534-0.147 0.1008-0.261 0.2436-0.343 0.4282-0.081 0.1833-0.122 0.3985-0.122 0.6456 0 0.2529 0.04 0.473 0.119 0.6605 0.081 0.1875 0.195 0.3331 0.341 0.4368 0.148 0.1037 0.321 0.1556 0.52 0.1556 0.131 0 0.25-0.0227 0.356-0.0682 0.107-0.0455 0.197-0.1108 0.271-0.196 0.074-0.0853 0.126-0.1875 0.157-0.3068h0.503c-0.028 0.1931-0.099 0.3671-0.211 0.522-0.111 0.1534-0.258 0.2755-0.441 0.3664-0.182 0.0895-0.393 0.1343-0.635 0.1343zm2.985 0.0085c-0.207 0-0.395-0.0391-0.564-0.1172-0.169-0.0795-0.304-0.1939-0.403-0.343-0.099-0.1506-0.149-0.3324-0.149-0.5455 0-0.1875 0.037-0.3395 0.111-0.4559 0.074-0.1179 0.172-0.2103 0.296-0.277 0.123-0.0668 0.26-0.1165 0.409-0.1492 0.15-0.0341 0.302-0.0611 0.454-0.0809 0.199-0.0256 0.36-0.0448 0.483-0.0576 0.125-0.0142 0.216-0.0376 0.273-0.0703 0.058-0.0327 0.087-0.0895 0.087-0.1704v-0.0171c0-0.2102-0.057-0.3736-0.172-0.49-0.114-0.1165-0.286-0.1748-0.518-0.1748-0.24 0-0.428 0.0526-0.564 0.1577-0.137 0.1051-0.233 0.2173-0.288 0.3367l-0.477-0.1705c0.085-0.1989 0.198-0.3537 0.341-0.4645 0.143-0.1122 0.299-0.1903 0.468-0.2344 0.171-0.0454 0.338-0.0681 0.503-0.0681 0.105 0 0.226 0.0127 0.362 0.0383 0.138 0.0242 0.271 0.0746 0.399 0.1513 0.129 0.0767 0.236 0.1925 0.321 0.3473 0.086 0.1548 0.128 0.3622 0.128 0.6222v2.1562h-0.503v-0.4432h-0.025c-0.034 0.071-0.091 0.147-0.171 0.228-0.079 0.081-0.185 0.1499-0.317 0.2067s-0.293 0.0852-0.484 0.0852zm0.077-0.4517c0.199 0 0.367-0.0391 0.503-0.1172 0.138-0.0781 0.241-0.179 0.311-0.3025 0.071-0.1236 0.106-0.2536 0.106-0.39v-0.4602c-0.021 0.0256-0.068 0.049-0.14 0.0703-0.071 0.0199-0.154 0.0377-0.247 0.0533-0.093 0.0142-0.183 0.027-0.271 0.0383-0.087 0.01-0.157 0.0185-0.211 0.0256-0.131 0.0171-0.253 0.0448-0.366 0.0831-0.113 0.0369-0.203 0.093-0.273 0.1683-0.068 0.0739-0.102 0.1747-0.102 0.3026 0 0.1747 0.064 0.3068 0.194 0.3963 0.13 0.0881 0.296 0.1321 0.496 0.1321zm2.844-1.5938v1.9688h-0.503v-3.2727h0.486v0.5113h0.043c0.076-0.1662 0.193-0.2997 0.349-0.4005 0.156-0.1023 0.358-0.1534 0.605-0.1534 0.222 0 0.416 0.0454 0.582 0.1363 0.166 0.0895 0.295 0.2259 0.388 0.4091 0.092 0.1818 0.138 0.4119 0.138 0.6904v2.0795h-0.503v-2.0455c0-0.2571-0.067-0.4573-0.2-0.6008-0.134-0.1449-0.317-0.2173-0.55-0.2173-0.16 0-0.304 0.0348-0.43 0.1044-0.125 0.0696-0.224 0.1711-0.296 0.3047-0.073 0.1335-0.109 0.2954-0.109 0.4857zm4.43-1.3039v0.4261h-1.696v-0.4261h1.696zm-1.202-0.7841h0.503v3.1193c0 0.142 0.021 0.2486 0.062 0.3196 0.043 0.0696 0.097 0.1165 0.162 0.1406 0.067 0.0228 0.137 0.0341 0.211 0.0341 0.055 0 0.101-0.0028 0.136-0.0085 0.036-0.0071 0.064-0.0128 0.086-0.0171l0.102 0.4518c-0.034 0.0127-0.082 0.0255-0.143 0.0383-0.061 0.0142-0.138 0.0213-0.232 0.0213-0.142 0-0.281-0.0305-0.418-0.0916-0.135-0.0611-0.247-0.1541-0.336-0.2791-0.088-0.125-0.133-0.2827-0.133-0.473v-3.2557zm3.714 4.0568v-4.3636h0.503v1.6108h0.043c0.037-0.0569 0.088-0.1293 0.153-0.2174 0.067-0.0895 0.162-0.169 0.286-0.2386 0.125-0.071 0.294-0.1065 0.507-0.1065 0.275 0 0.518 0.0689 0.728 0.2066 0.211 0.1378 0.375 0.3331 0.493 0.586 0.118 0.2528 0.176 0.5511 0.176 0.8949 0 0.3466-0.058 0.647-0.176 0.9012-0.118 0.2529-0.282 0.4489-0.49 0.5881-0.209 0.1378-0.45 0.2067-0.723 0.2067-0.21 0-0.378-0.0348-0.505-0.1044-0.126-0.071-0.223-0.1513-0.292-0.2408-0.068-0.0909-0.12-0.1662-0.157-0.2258h-0.06v0.5028h-0.486zm0.495-1.6364c0 0.2472 0.036 0.4652 0.108 0.6542 0.073 0.1875 0.178 0.3345 0.318 0.441 0.139 0.1051 0.309 0.1577 0.511 0.1577 0.21 0 0.386-0.0554 0.526-0.1662 0.142-0.1122 0.249-0.2628 0.32-0.4517 0.072-0.1904 0.109-0.402 0.109-0.635 0-0.2301-0.036-0.4375-0.107-0.6221-0.07-0.1861-0.175-0.3331-0.317-0.4411-0.141-0.1093-0.318-0.164-0.531-0.164-0.204 0-0.376 0.0518-0.516 0.1555-0.139 0.1023-0.244 0.2457-0.315 0.4304-0.071 0.1832-0.106 0.397-0.106 0.6413zm3.164 1.6364v-3.2727h0.502v3.2727h-0.502zm0.255-3.8182c-0.098 0-0.182-0.0334-0.253-0.1001-0.07-0.0668-0.105-0.147-0.105-0.2408 0-0.0937 0.035-0.174 0.105-0.2408 0.071-0.0667 0.155-0.1001 0.253-0.1001s0.182 0.0334 0.252 0.1001c0.071 0.0668 0.106 0.1471 0.106 0.2408 0 0.0938-0.035 0.174-0.106 0.2408-0.07 0.0667-0.154 0.1001-0.252 0.1001zm2.592 0.5455v0.4261h-1.696v-0.4261h1.696zm-1.202-0.7841h0.503v3.1193c0 0.142 0.02 0.2486 0.062 0.3196 0.042 0.0696 0.096 0.1165 0.162 0.1406 0.066 0.0228 0.137 0.0341 0.211 0.0341 0.055 0 0.1-0.0028 0.136-0.0085 0.035-0.0071 0.064-0.0128 0.085-0.0171l0.102 0.4518c-0.034 0.0127-0.081 0.0255-0.142 0.0383-0.061 0.0142-0.139 0.0213-0.233 0.0213-0.142 0-0.281-0.0305-0.417-0.0916-0.135-0.0611-0.247-0.1541-0.337-0.2791-0.088-0.125-0.132-0.2827-0.132-0.473v-3.2557z" fill="#000"/>
<path d="m142.73 16v-4.3636h0.922v3.6029h1.871v0.7607h-2.793zm5.771-3.1087c-0.017-0.1718-0.09-0.3054-0.219-0.4005-0.129-0.0952-0.305-0.1428-0.526-0.1428-0.151 0-0.278 0.0213-0.382 0.0639-0.103 0.0412-0.183 0.0988-0.238 0.1726-0.054 0.0739-0.081 0.1577-0.081 0.2514-3e-3 0.0782 0.013 0.1463 0.049 0.2046 0.037 0.0582 0.087 0.1086 0.151 0.1513 0.064 0.0412 0.138 0.0774 0.222 0.1086 0.083 0.0299 0.173 0.0554 0.268 0.0767l0.392 0.0938c0.19 0.0426 0.365 0.0994 0.524 0.1704 0.159 0.0711 0.297 0.1584 0.414 0.2621 0.116 0.1037 0.206 0.2259 0.27 0.3665 0.065 0.1406 0.099 0.3018 0.1 0.4837-1e-3 0.267-0.069 0.4985-0.204 0.6946-0.134 0.1946-0.327 0.3458-0.58 0.4538-0.251 0.1065-0.555 0.1598-0.91 0.1598-0.352 0-0.659-0.054-0.92-0.1619-0.26-0.108-0.463-0.2678-0.609-0.4794-0.145-0.2131-0.221-0.4766-0.228-0.7905h0.892c0.01 0.1463 0.052 0.2684 0.126 0.3664 0.075 0.0966 0.175 0.1698 0.3 0.2195 0.127 0.0483 0.27 0.0725 0.429 0.0725 0.156 0 0.292-0.0228 0.407-0.0682 0.116-0.0455 0.206-0.1087 0.27-0.1897 0.064-0.0809 0.096-0.174 0.096-0.2791 0-0.098-0.029-0.1804-0.087-0.2471-0.057-0.0668-0.141-0.1236-0.252-0.1705-0.109-0.0469-0.243-0.0895-0.402-0.1278l-0.475-0.1194c-0.368-0.0894-0.659-0.2294-0.872-0.4197s-0.319-0.4467-0.317-0.7692c-2e-3 -0.2642 0.069-0.495 0.211-0.6924 0.143-0.1975 0.34-0.3516 0.59-0.4624s0.534-0.1662 0.852-0.1662c0.324 0 0.607 0.0554 0.848 0.1662 0.243 0.1108 0.432 0.2649 0.567 0.4624 0.135 0.1974 0.204 0.4261 0.209 0.686h-0.885zm1.565 3.1087v-4.3636h1.747c0.321 0 0.589 0.0475 0.803 0.1427 0.215 0.0952 0.376 0.2273 0.484 0.3963 0.108 0.1676 0.162 0.3608 0.162 0.5796 0 0.1704-0.034 0.3203-0.102 0.4495-0.069 0.1279-0.162 0.233-0.282 0.3154-0.118 0.081-0.253 0.1385-0.404 0.1726v0.0426c0.166 0.0071 0.321 0.054 0.466 0.1406 0.146 0.0867 0.265 0.2081 0.356 0.3644 0.091 0.1548 0.136 0.3394 0.136 0.5539 0 0.2316-0.057 0.4382-0.172 0.6201-0.114 0.1804-0.282 0.3231-0.505 0.4282s-0.498 0.1577-0.825 0.1577h-1.864zm0.922-0.7543h0.753c0.257 0 0.444-0.049 0.562-0.147 0.118-0.0994 0.177-0.2315 0.177-0.3963 0-0.1207-0.029-0.2273-0.087-0.3196-0.059-0.0923-0.142-0.1648-0.25-0.2173-0.106-0.0526-0.233-0.0789-0.381-0.0789h-0.774v1.1591zm0-1.7833h0.684c0.127 0 0.239-0.0221 0.337-0.0661 0.099-0.0454 0.178-0.1094 0.234-0.1918 0.059-0.0823 0.088-0.1811 0.088-0.2961 0-0.1577-0.056-0.2848-0.169-0.3814-0.11-0.0966-0.268-0.1449-0.473-0.1449h-0.701v1.0803z" fill="#000"/>
<path d="m70.982 86.636h0.6307l1.483 3.6221h0.0511l1.483-3.6221h0.6306v4.3636h-0.4943v-3.3153h-0.0426l-1.3636 3.3153h-0.4773l-1.3636-3.3153h-0.0426v3.3153h-0.4944v-4.3636zm6.5993 4.4318c-0.2955 0-0.5547-0.0703-0.7777-0.211-0.2216-0.1406-0.3949-0.3373-0.5199-0.5902-0.1236-0.2528-0.1854-0.5483-0.1854-0.8863 0-0.3409 0.0618-0.6385 0.1854-0.8928 0.125-0.2542 0.2983-0.4517 0.5199-0.5923 0.223-0.1406 0.4822-0.2109 0.7777-0.2109 0.2954 0 0.554 0.0703 0.7756 0.2109 0.223 0.1406 0.3963 0.3381 0.5198 0.5923 0.125 0.2543 0.1875 0.5519 0.1875 0.8928 0 0.338-0.0625 0.6335-0.1875 0.8863-0.1235 0.2529-0.2968 0.4496-0.5198 0.5902-0.2216 0.1407-0.4802 0.211-0.7756 0.211zm0-0.4517c0.2244 0 0.4091-0.0576 0.554-0.1726 0.1449-0.1151 0.2521-0.2663 0.3217-0.4538s0.1044-0.3907 0.1044-0.6094c0-0.2188-0.0348-0.4226-0.1044-0.6115s-0.1768-0.3416-0.3217-0.4581-0.3296-0.1747-0.554-0.1747-0.4091 0.0582-0.554 0.1747-0.2521 0.2692-0.3217 0.4581-0.1044 0.3927-0.1044 0.6115c0 0.2187 0.0348 0.4219 0.1044 0.6094s0.1768 0.3387 0.3217 0.4538c0.1449 0.115 0.3296 0.1726 0.554 0.1726zm4.5687-2.1563-0.4517 0.1279c-0.0284-0.0753-0.0703-0.1485-0.1257-0.2195-0.054-0.0724-0.1279-0.1321-0.2216-0.179-0.0938-0.0468-0.2138-0.0703-0.3601-0.0703-0.2003 0-0.3672 0.0462-0.5007 0.1385-0.1321 0.0909-0.1982 0.2067-0.1982 0.3473 0 0.125 0.0455 0.2237 0.1364 0.2962 0.0909 0.0724 0.233 0.1328 0.4261 0.1811l0.4858 0.1193c0.2927 0.071 0.5107 0.1797 0.6542 0.326 0.1434 0.1449 0.2152 0.3317 0.2152 0.5604 0 0.1875-0.054 0.3551-0.162 0.5028-0.1065 0.1477-0.2557 0.2642-0.4474 0.3494-0.1918 0.0853-0.4148 0.1279-0.669 0.1279-0.3339 0-0.6101-0.0725-0.8289-0.2173-0.2187-0.1449-0.3572-0.3566-0.4155-0.635l0.4773-0.1193c0.0455 0.1761 0.1314 0.3082 0.2578 0.3963 0.1279 0.0881 0.2948 0.1321 0.5007 0.1321 0.2344 0 0.4205-0.0497 0.5583-0.1491 0.1392-0.1009 0.2088-0.2216 0.2088-0.3623 0-0.1136-0.0398-0.2088-0.1193-0.2855-0.0796-0.0781-0.2017-0.1363-0.3665-0.1747l-0.5455-0.1278c-0.2997-0.0711-0.5199-0.1811-0.6605-0.3303-0.1392-0.1506-0.2088-0.3388-0.2088-0.5646 0-0.1847 0.0519-0.348 0.1555-0.4901 0.1052-0.142 0.2479-0.2535 0.4283-0.3345 0.1818-0.081 0.3878-0.1214 0.6179-0.1214 0.3239 0 0.5781 0.071 0.7628 0.213 0.1861 0.1421 0.3182 0.3296 0.3963 0.5625zm2.2399-0.7329v0.4261h-1.696v-0.4261h1.696zm-1.2017-0.7841h0.5028v3.1193c0 0.142 0.0206 0.2486 0.0618 0.3196 0.0426 0.0696 0.0966 0.1165 0.1619 0.1406 0.0668 0.0228 0.1371 0.0341 0.211 0.0341 0.0554 0 0.1008-0.0028 0.1363-0.0085 0.0356-0.0071 0.064-0.0128 0.0853-0.0171l0.1022 0.4518c-0.034 0.0127-0.0816 0.0255-0.1427 0.0383-0.0611 0.0142-0.1385 0.0213-0.2323 0.0213-0.142 0-0.2812-0.0305-0.4176-0.0916-0.1349-0.0611-0.2471-0.1541-0.3366-0.2791-0.0881-0.125-0.1321-0.2827-0.1321-0.473v-3.2557zm5.9638 1.517-0.4517 0.1279c-0.0285-0.0753-0.0704-0.1485-0.1258-0.2195-0.0539-0.0724-0.1278-0.1321-0.2215-0.179-0.0938-0.0468-0.2138-0.0703-0.3601-0.0703-0.2003 0-0.3672 0.0462-0.5007 0.1385-0.1321 0.0909-0.1982 0.2067-0.1982 0.3473 0 0.125 0.0455 0.2237 0.1364 0.2962 0.0909 0.0724 0.2329 0.1328 0.4261 0.1811l0.4858 0.1193c0.2926 0.071 0.5107 0.1797 0.6541 0.326 0.1435 0.1449 0.2152 0.3317 0.2152 0.5604 0 0.1875-0.054 0.3551-0.1619 0.5028-0.1066 0.1477-0.2557 0.2642-0.4475 0.3494-0.1917 0.0853-0.4147 0.1279-0.669 0.1279-0.3338 0-0.6101-0.0725-0.8288-0.2173-0.2188-0.1449-0.3573-0.3566-0.4155-0.635l0.4773-0.1193c0.0454 0.1761 0.1314 0.3082 0.2578 0.3963 0.1278 0.0881 0.2947 0.1321 0.5007 0.1321 0.2344 0 0.4204-0.0497 0.5582-0.1491 0.1392-0.1009 0.2088-0.2216 0.2088-0.3623 0-0.1136-0.0397-0.2088-0.1193-0.2855-0.0795-0.0781-0.2017-0.1363-0.3665-0.1747l-0.5454-0.1278c-0.2997-0.0711-0.5199-0.1811-0.6605-0.3303-0.1392-0.1506-0.2088-0.3388-0.2088-0.5646 0-0.1847 0.0518-0.348 0.1555-0.4901 0.1051-0.142 0.2479-0.2535 0.4283-0.3345 0.1818-0.081 0.3878-0.1214 0.6179-0.1214 0.3238 0 0.5781 0.071 0.7627 0.213 0.1861 0.1421 0.3182 0.3296 0.3964 0.5625zm0.8165 2.5398v-3.2727h0.5029v3.2727h-0.5029zm0.2557-3.8182c-0.098 0-0.1825-0.0334-0.2535-0.1001-0.0696-0.0668-0.1044-0.147-0.1044-0.2408 0-0.0937 0.0348-0.174 0.1044-0.2408 0.071-0.0667 0.1555-0.1001 0.2535-0.1001s0.1818 0.0334 0.2514 0.1001c0.0711 0.0668 0.1066 0.1471 0.1066 0.2408 0 0.0938-0.0355 0.174-0.1066 0.2408-0.0696 0.0667-0.1534 0.1001-0.2514 0.1001zm2.4892 5.1137c-0.2429 0-0.4517-0.0313-0.6264-0.0938-0.1747-0.0611-0.3203-0.142-0.4368-0.2429-0.1151-0.0994-0.2067-0.206-0.2749-0.3196l0.4006-0.2812c0.0454 0.0596 0.103 0.1278 0.1726 0.2045 0.0696 0.0781 0.1647 0.1456 0.2855 0.2024 0.1221 0.0583 0.2819 0.0874 0.4794 0.0874 0.2642 0 0.4822-0.0639 0.6541-0.1918 0.1719-0.1278 0.2578-0.3281 0.2578-0.6008v-0.6648h-0.0426c-0.0369 0.0596-0.0895 0.1335-0.1577 0.2216-0.0667 0.0866-0.1633 0.164-0.2897 0.2322-0.125 0.0668-0.2941 0.1002-0.5071 0.1002-0.2642 0-0.5015-0.0625-0.7117-0.1875-0.2088-0.125-0.3743-0.3069-0.4964-0.5455-0.1208-0.2386-0.1811-0.5284-0.1811-0.8693 0-0.3352 0.0589-0.6271 0.1768-0.8757 0.1179-0.25 0.282-0.4432 0.4922-0.5796 0.2102-0.1377 0.4531-0.2066 0.7287-0.2066 0.2131 0 0.3821 0.0355 0.5071 0.1065 0.1264 0.0696 0.223 0.1491 0.2898 0.2386 0.0681 0.0881 0.1207 0.1605 0.1576 0.2174h0.0512v-0.5199h0.4858v3.3665c0 0.2812-0.064 0.5099-0.1918 0.686-0.1264 0.1776-0.2969 0.3076-0.5114 0.3899-0.213 0.0839-0.4502 0.1258-0.7116 0.1258zm-0.0171-1.7983c0.2017 0 0.3722-0.0462 0.5114-0.1385 0.1392-0.0924 0.245-0.2252 0.3175-0.3985 0.0724-0.1733 0.1086-0.3807 0.1086-0.6221 0-0.2358-0.0355-0.4439-0.1065-0.6243s-0.1761-0.3218-0.3153-0.424c-0.1392-0.1023-0.3111-0.1534-0.5157-0.1534-0.213 0-0.3906 0.0539-0.5326 0.1619-0.1407 0.1079-0.2465 0.2528-0.3175 0.4347-0.0696 0.1818-0.1044 0.3835-0.1044 0.6051 0 0.2272 0.0355 0.4282 0.1065 0.603 0.0725 0.1732 0.179 0.3096 0.3196 0.409 0.1421 0.0981 0.3182 0.1471 0.5284 0.1471zm2.8552-1.466v1.9688h-0.5029v-3.2727h0.4858v0.5113h0.0426c0.0767-0.1662 0.1932-0.2997 0.3495-0.4005 0.1562-0.1023 0.3579-0.1534 0.6051-0.1534 0.2216 0 0.4155 0.0454 0.5816 0.1363 0.1662 0.0895 0.2955 0.2259 0.3878 0.4091 0.0924 0.1818 0.1385 0.4119 0.1385 0.6904v2.0795h-0.5028v-2.0455c0-0.2571-0.0668-0.4573-0.2003-0.6008-0.1335-0.1449-0.3168-0.2173-0.5497-0.2173-0.1605 0-0.304 0.0348-0.4304 0.1044-0.125 0.0696-0.2237 0.1711-0.2962 0.3047-0.0724 0.1335-0.1086 0.2954-0.1086 0.4857zm3.0069 1.9688v-3.2727h0.5028v3.2727h-0.5028zm0.2557-3.8182c-0.098 0-0.1826-0.0334-0.2536-0.1001-0.0696-0.0668-0.1044-0.147-0.1044-0.2408 0-0.0937 0.0348-0.174 0.1044-0.2408 0.071-0.0667 0.1556-0.1001 0.2536-0.1001s0.1818 0.0334 0.2514 0.1001c0.071 0.0668 0.1065 0.1471 0.1065 0.2408 0 0.0938-0.0355 0.174-0.1065 0.2408-0.0696 0.0667-0.1534 0.1001-0.2514 0.1001zm2.6254 0.5455v0.4261h-1.7641v-0.4261h1.7641zm-1.236 3.2727v-3.7244c0-0.1875 0.044-0.3438 0.132-0.4688s0.203-0.2187 0.343-0.2812c0.141-0.0625 0.29-0.0938 0.446-0.0938 0.123 0 0.224 0.01 0.302 0.0298 0.078 0.0199 0.137 0.0384 0.175 0.0554l-0.145 0.4347c-0.025-0.0085-0.061-0.0192-0.106-0.032-0.044-0.0127-0.103-0.0191-0.175-0.0191-0.166 0-0.286 0.0419-0.36 0.1257-0.073 0.0838-0.109 0.2067-0.109 0.3686v3.6051h-0.503zm1.941 0v-3.2727h0.503v3.2727h-0.503zm0.256-3.8182c-0.099 0-0.183-0.0334-0.254-0.1001-0.07-0.0668-0.104-0.147-0.104-0.2408 0-0.0937 0.034-0.174 0.104-0.2408 0.071-0.0667 0.155-0.1001 0.254-0.1001 0.098 0 0.181 0.0334 0.251 0.1001 0.071 0.0668 0.106 0.1471 0.106 0.2408 0 0.0938-0.035 0.174-0.106 0.2408-0.07 0.0667-0.153 0.1001-0.251 0.1001zm2.497 3.8864c-0.307 0-0.571-0.0725-0.792-0.2173-0.222-0.1449-0.392-0.3445-0.512-0.5988-0.119-0.2542-0.179-0.5447-0.179-0.8714 0-0.3324 0.061-0.6257 0.183-0.88 0.124-0.2557 0.296-0.4552 0.516-0.5987 0.222-0.1449 0.48-0.2173 0.776-0.2173 0.23 0 0.437 0.0426 0.622 0.1278 0.184 0.0852 0.336 0.2045 0.454 0.358 0.118 0.1534 0.191 0.3323 0.219 0.5369h-0.503c-0.038-0.1492-0.123-0.2813-0.255-0.3963-0.131-0.1165-0.307-0.1747-0.529-0.1747-0.196 0-0.368 0.0511-0.515 0.1534-0.147 0.1008-0.261 0.2436-0.343 0.4282-0.081 0.1833-0.122 0.3985-0.122 0.6456 0 0.2529 0.04 0.473 0.119 0.6605 0.081 0.1875 0.195 0.3331 0.341 0.4368 0.148 0.1037 0.321 0.1556 0.52 0.1556 0.131 0 0.249-0.0227 0.356-0.0682s0.197-0.1108 0.271-0.196c0.073-0.0853 0.126-0.1875 0.157-0.3068h0.503c-0.028 0.1931-0.099 0.3671-0.211 0.522-0.111 0.1534-0.258 0.2755-0.441 0.3664-0.182 0.0895-0.393 0.1343-0.635 0.1343zm2.985 0.0085c-0.207 0-0.395-0.0391-0.564-0.1172-0.169-0.0795-0.304-0.1939-0.403-0.343-0.099-0.1506-0.149-0.3324-0.149-0.5455 0-0.1875 0.037-0.3395 0.111-0.4559 0.073-0.1179 0.172-0.2103 0.296-0.277 0.123-0.0668 0.26-0.1165 0.409-0.1492 0.15-0.0341 0.302-0.0611 0.454-0.0809 0.199-0.0256 0.36-0.0448 0.483-0.0576 0.125-0.0142 0.216-0.0376 0.273-0.0703 0.058-0.0327 0.087-0.0895 0.087-0.1704v-0.0171c0-0.2102-0.057-0.3736-0.172-0.49-0.114-0.1165-0.286-0.1748-0.518-0.1748-0.24 0-0.428 0.0526-0.565 0.1577-0.136 0.1051-0.232 0.2173-0.287 0.3367l-0.477-0.1705c0.085-0.1989 0.198-0.3537 0.34-0.4645 0.144-0.1122 0.3-0.1903 0.469-0.2344 0.171-0.0454 0.338-0.0681 0.503-0.0681 0.105 0 0.226 0.0127 0.362 0.0383 0.138 0.0242 0.271 0.0746 0.399 0.1513 0.129 0.0767 0.236 0.1925 0.321 0.3473 0.086 0.1548 0.128 0.3622 0.128 0.6222v2.1562h-0.503v-0.4432h-0.025c-0.034 0.071-0.091 0.147-0.171 0.228-0.079 0.081-0.185 0.1499-0.317 0.2067s-0.293 0.0852-0.484 0.0852zm0.077-0.4517c0.199 0 0.366-0.0391 0.503-0.1172 0.138-0.0781 0.241-0.179 0.311-0.3025 0.071-0.1236 0.106-0.2536 0.106-0.39v-0.4602c-0.021 0.0256-0.068 0.049-0.14 0.0703-0.071 0.0199-0.154 0.0377-0.247 0.0533-0.093 0.0142-0.183 0.027-0.271 0.0383-0.087 0.01-0.157 0.0185-0.211 0.0256-0.131 0.0171-0.253 0.0448-0.366 0.0831-0.113 0.0369-0.203 0.093-0.273 0.1683-0.068 0.0739-0.102 0.1747-0.102 0.3026 0 0.1747 0.064 0.3068 0.194 0.3963 0.13 0.0881 0.296 0.1321 0.496 0.1321zm2.844-1.5938v1.9688h-0.503v-3.2727h0.486v0.5113h0.042c0.077-0.1662 0.194-0.2997 0.35-0.4005 0.156-0.1023 0.358-0.1534 0.605-0.1534 0.222 0 0.416 0.0454 0.582 0.1363 0.166 0.0895 0.295 0.2259 0.387 0.4091 0.093 0.1818 0.139 0.4119 0.139 0.6904v2.0795h-0.503v-2.0455c0-0.2571-0.067-0.4573-0.2-0.6008-0.134-0.1449-0.317-0.2173-0.55-0.2173-0.16 0-0.304 0.0348-0.43 0.1044-0.125 0.0696-0.224 0.1711-0.296 0.3047-0.073 0.1335-0.109 0.2954-0.109 0.4857zm4.43-1.3039v0.4261h-1.696v-0.4261h1.696zm-1.202-0.7841h0.503v3.1193c0 0.142 0.021 0.2486 0.062 0.3196 0.043 0.0696 0.097 0.1165 0.162 0.1406 0.067 0.0228 0.137 0.0341 0.211 0.0341 0.055 0 0.101-0.0028 0.136-0.0085 0.036-0.0071 0.064-0.0128 0.086-0.0171l0.102 0.4518c-0.034 0.0127-0.082 0.0255-0.143 0.0383-0.061 0.0142-0.138 0.0213-0.232 0.0213-0.142 0-0.281-0.0305-0.418-0.0916-0.135-0.0611-0.247-0.1541-0.336-0.2791s-0.133-0.2827-0.133-0.473v-3.2557zm3.714 4.0568v-4.3636h0.503v1.6108h0.043c0.037-0.0569 0.088-0.1293 0.153-0.2174 0.067-0.0895 0.162-0.169 0.286-0.2386 0.125-0.071 0.294-0.1065 0.507-0.1065 0.275 0 0.518 0.0689 0.728 0.2066 0.211 0.1378 0.375 0.3331 0.493 0.586 0.117 0.2528 0.176 0.5511 0.176 0.8949 0 0.3466-0.059 0.647-0.176 0.9012-0.118 0.2529-0.282 0.4489-0.49 0.5881-0.209 0.1378-0.45 0.2067-0.723 0.2067-0.21 0-0.378-0.0348-0.505-0.1044-0.126-0.071-0.223-0.1513-0.292-0.2408-0.068-0.0909-0.12-0.1662-0.157-0.2258h-0.06v0.5028h-0.486zm0.495-1.6364c0 0.2472 0.036 0.4652 0.108 0.6542 0.073 0.1875 0.178 0.3345 0.318 0.441 0.139 0.1051 0.309 0.1577 0.511 0.1577 0.21 0 0.386-0.0554 0.526-0.1662 0.142-0.1122 0.249-0.2628 0.32-0.4517 0.072-0.1904 0.109-0.402 0.109-0.635 0-0.2301-0.036-0.4375-0.107-0.6221-0.07-0.1861-0.175-0.3331-0.317-0.4411-0.141-0.1093-0.318-0.164-0.531-0.164-0.205 0-0.376 0.0518-0.516 0.1555-0.139 0.1023-0.244 0.2457-0.315 0.4304-0.071 0.1832-0.106 0.397-0.106 0.6413zm3.164 1.6364v-3.2727h0.502v3.2727h-0.502zm0.255-3.8182c-0.098 0-0.182-0.0334-0.253-0.1001-0.07-0.0668-0.105-0.147-0.105-0.2408 0-0.0937 0.035-0.174 0.105-0.2408 0.071-0.0667 0.155-0.1001 0.253-0.1001s0.182 0.0334 0.252 0.1001c0.071 0.0668 0.106 0.1471 0.106 0.2408 0 0.0938-0.035 0.174-0.106 0.2408-0.07 0.0667-0.154 0.1001-0.252 0.1001zm2.592 0.5455v0.4261h-1.696v-0.4261h1.696zm-1.202-0.7841h0.503v3.1193c0 0.142 0.02 0.2486 0.062 0.3196 0.042 0.0696 0.096 0.1165 0.162 0.1406 0.066 0.0228 0.137 0.0341 0.211 0.0341 0.055 0 0.1-0.0028 0.136-0.0085 0.035-0.0071 0.064-0.0128 0.085-0.0171l0.102 0.4518c-0.034 0.0127-0.081 0.0255-0.142 0.0383-0.061 0.0142-0.139 0.0213-0.233 0.0213-0.142 0-0.281-0.0305-0.417-0.0916-0.135-0.0611-0.247-0.1541-0.337-0.2791-0.088-0.125-0.132-0.2827-0.132-0.473v-3.2557z" fill="#000"/>
<path d="m90.685 76.636h1.1378l1.2017 2.9318h0.0512l1.2017-2.9318h1.1377v4.3636h-0.8948v-2.8402h-0.0363l-1.1292 2.8189h-0.6094l-1.1293-2.8296h-0.0362v2.8509h-0.8949v-4.3636zm7.8574 1.2549c-0.017-0.1718-0.0902-0.3054-0.2194-0.4005-0.1293-0.0952-0.3047-0.1428-0.5263-0.1428-0.1506 0-0.2777 0.0213-0.3814 0.0639-0.1037 0.0412-0.1832 0.0988-0.2386 0.1726-0.054 0.0739-0.081 0.1577-0.081 0.2514-0.0028 0.0782 0.0135 0.1463 0.049 0.2046 0.037 0.0582 0.0874 0.1086 0.1513 0.1513 0.0639 0.0412 0.1378 0.0774 0.2216 0.1086 0.0838 0.0299 0.1733 0.0554 0.2685 0.0767l0.392 0.0938c0.1903 0.0426 0.3651 0.0994 0.5241 0.1704 0.1591 0.0711 0.2969 0.1584 0.4134 0.2621s0.2067 0.2259 0.2706 0.3665c0.0653 0.1406 0.0987 0.3018 0.1001 0.4837-0.0014 0.267-0.0696 0.4985-0.2045 0.6946-0.1335 0.1946-0.3267 0.3458-0.5796 0.4538-0.2514 0.1065-0.5546 0.1598-0.9098 0.1598-0.3522 0-0.659-0.054-0.9204-0.1619-0.26-0.108-0.4631-0.2678-0.6094-0.4794-0.1449-0.2131-0.2209-0.4766-0.228-0.7905h0.8928c0.0099 0.1463 0.0518 0.2684 0.1257 0.3664 0.0753 0.0966 0.1754 0.1698 0.3004 0.2195 0.1264 0.0483 0.2692 0.0725 0.4283 0.0725 0.1562 0 0.2919-0.0228 0.407-0.0682 0.1164-0.0455 0.2066-0.1087 0.2706-0.1897 0.0639-0.0809 0.0958-0.174 0.0958-0.2791 0-0.098-0.0291-0.1804-0.0873-0.2471-0.0568-0.0668-0.1407-0.1236-0.2514-0.1705-0.1094-0.0469-0.2437-0.0895-0.4027-0.1278l-0.4752-0.1194c-0.3679-0.0894-0.6584-0.2294-0.8714-0.4197-0.2131-0.1903-0.3189-0.4467-0.3175-0.7692-0.0014-0.2642 0.0689-0.495 0.2109-0.6924 0.1435-0.1975 0.3402-0.3516 0.5902-0.4624s0.5341-0.1662 0.8523-0.1662c0.3239 0 0.6065 0.0554 0.848 0.1662 0.2429 0.1108 0.4318 0.2649 0.5668 0.4624 0.1349 0.1974 0.2045 0.4261 0.2088 0.686h-0.8843zm1.5647 3.1087v-4.3636h1.747c0.321 0 0.589 0.0475 0.803 0.1427 0.215 0.0952 0.376 0.2273 0.484 0.3963 0.108 0.1676 0.162 0.3608 0.162 0.5796 0 0.1704-0.034 0.3203-0.102 0.4495-0.069 0.1279-0.162 0.233-0.282 0.3154-0.118 0.081-0.253 0.1385-0.405 0.1726v0.0426c0.167 0.0071 0.322 0.054 0.467 0.1406 0.146 0.0867 0.265 0.2081 0.356 0.3644 0.091 0.1548 0.136 0.3394 0.136 0.5539 0 0.2316-0.057 0.4382-0.172 0.6201-0.114 0.1804-0.282 0.3231-0.505 0.4282s-0.498 0.1577-0.825 0.1577h-1.864zm0.922-0.7543h0.753c0.257 0 0.444-0.049 0.562-0.147 0.118-0.0994 0.177-0.2315 0.177-0.3963 0-0.1207-0.029-0.2273-0.087-0.3196-0.059-0.0923-0.142-0.1648-0.25-0.2173-0.106-0.0526-0.233-0.0789-0.381-0.0789h-0.774v1.1591zm0-1.7833h0.684c0.127 0 0.239-0.0221 0.337-0.0661 0.099-0.0454 0.178-0.1094 0.234-0.1918 0.059-0.0823 0.088-0.1811 0.088-0.2961 0-0.1577-0.056-0.2848-0.169-0.3814-0.11-0.0966-0.268-0.1449-0.473-0.1449h-0.701v1.0803z" fill="#000"/>
<line x1="97.25" x2="97.25" y1="61" y2="75" stroke="#000" stroke-width=".5"/>
<line x1="148.25" x2="148.25" y1="29" y2="43" stroke="#000" stroke-width=".5"/>
<path d="m19.266 43.546v17.454h-3.6903v-13.952h-0.1023l-3.9971 2.5057v-3.2728l4.321-2.7357h3.4687zm11.742 0v17.454h-3.6903v-13.952h-0.1023l-3.9971 2.5057v-3.2728l4.321-2.7357h3.4687z" fill="#000"/>
<path d="m81 52-5-2.8868v5.7736l5-2.8868zm-43 0.5h38.5v-1h-38.5v1z" fill="#000"/>
</svg>
